<?xml version="1.0" encoding="UTF-8" standalone="no"?>
<!-- Generator: Adobe Illustrator 15.0.2, SVG Export Plug-In . SVG Version: 6.00 Build 0)  -->

<svg
   xmlns:dc="http://purl.org/dc/elements/1.1/"
   xmlns:cc="http://creativecommons.org/ns#"
   xmlns:rdf="http://www.w3.org/1999/02/22-rdf-syntax-ns#"
   xmlns:svg="http://www.w3.org/2000/svg"
   xmlns="http://www.w3.org/2000/svg"
   xmlns:sodipodi="http://sodipodi.sourceforge.net/DTD/sodipodi-0.dtd"
   xmlns:inkscape="http://www.inkscape.org/namespaces/inkscape"
   version="1.1"
   id="Ebene_1"
   x="0px"
   y="0px"
   width="71.639999"
   height="72.358994"
   viewBox="0 0 71.640003 72.358994"
   enable-background="new 0 0 595.22 842"
   xml:space="preserve"
   inkscape:version="0.48.2 r9819"
   sodipodi:docname="U203B-reference-mark-glyph-in-andron-scriptor-web.svg"><metadata
   id="metadata13"><rdf:RDF><cc:Work
       rdf:about=""><dc:format>image/svg+xml</dc:format><dc:type
         rdf:resource="http://purl.org/dc/dcmitype/StillImage" /></cc:Work></rdf:RDF></metadata><defs
   id="defs11" /><sodipodi:namedview
   pagecolor="#ffffff"
   bordercolor="#666666"
   borderopacity="1"
   objecttolerance="10"
   gridtolerance="10"
   guidetolerance="10"
   inkscape:pageopacity="0"
   inkscape:pageshadow="2"
   inkscape:window-width="640"
   inkscape:window-height="480"
   id="namedview9"
   showgrid="false"
   fit-margin-top="0"
   fit-margin-left="0"
   fit-margin-right="0"
   fit-margin-bottom="0"
   inkscape:zoom="0.28028504"
   inkscape:cx="69.909997"
   inkscape:cy="-239.68099"
   inkscape:window-x="0"
   inkscape:window-y="0"
   inkscape:window-maximized="0"
   inkscape:current-layer="Ebene_1" />
<g
   id="g3"
   transform="translate(-227.7,-108.96002)">
	<path
   d="m 227.7,146.64 c 0,-1.999 0.66,-3.679 1.98,-5.04 1.32,-1.359 2.979,-2.04 4.98,-2.04 1.999,0 3.679,0.681 5.04,2.04 1.359,1.361 2.04,3.041 2.04,5.04 0,2 -0.681,3.66 -2.04,4.98 -1.361,1.32 -3.041,1.98 -5.04,1.98 -2,0 -3.66,-0.66 -4.98,-1.98 -1.32,-1.32 -1.98,-2.98 -1.98,-4.98 z m 6.12,29.64 24.72,-28.08 v -1.56 l -25.92,-29.04 9.24,-3.6 22.44,26.28 h 1.56 l 22.56,-25.2 6.24,1.92 c -2.48,2.721 -5.021,5.501 -7.62,8.34 -2.601,2.841 -5.04,5.52 -7.32,8.04 -2.28,2.52 -4.28,4.761 -6,6.72 -1.721,1.961 -2.94,3.38 -3.66,4.26 v 1.56 l 25.68,29.04 -9.6,3.12 c -3.84,-4.639 -7.061,-8.52 -9.66,-11.64 -2.601,-3.12 -4.74,-5.659 -6.42,-7.62 -1.68,-1.959 -2.961,-3.459 -3.84,-4.5 -0.881,-1.039 -1.521,-1.759 -1.92,-2.16 h -1.8 c -0.72,0.801 -1.961,2.181 -3.72,4.14 -1.761,1.961 -3.701,4.161 -5.82,6.6 -2.121,2.441 -4.301,4.98 -6.54,7.62 -2.241,2.64 -4.241,5.04 -6,7.2 l -6.6,-1.44 z m 22.32,-1.921 c 0,-1.999 0.66,-3.679 1.98,-5.04 1.32,-1.359 2.979,-2.04 4.98,-2.04 1.999,0 3.679,0.681 5.04,2.04 1.359,1.361 2.04,3.041 2.04,5.04 0,2.001 -0.681,3.66 -2.04,4.98 -1.361,1.32 -3.041,1.98 -5.04,1.98 -2.001,0 -3.66,-0.66 -4.98,-1.98 -1.32,-1.319 -1.98,-2.979 -1.98,-4.98 z m 2.76,-58.319 c 0,-1.999 0.66,-3.679 1.98,-5.04 1.32,-1.359 2.979,-2.04 4.98,-2.04 1.999,0 3.679,0.681 5.04,2.04 1.359,1.361 2.04,3.042 2.04,5.04 0,2 -0.681,3.66 -2.04,4.98 -1.361,1.32 -3.042,1.98 -5.04,1.98 -2,0 -3.66,-0.66 -4.98,-1.98 -1.32,-1.32 -1.98,-2.98 -1.98,-4.98 z m 26.4,29.76 c 0,-1.999 0.66,-3.679 1.98,-5.04 1.32,-1.359 2.979,-2.04 4.98,-2.04 1.999,0 3.679,0.681 5.04,2.04 1.359,1.361 2.04,3.041 2.04,5.04 0,2 -0.681,3.66 -2.04,4.98 -1.361,1.32 -3.041,1.98 -5.04,1.98 -2,0 -3.66,-0.66 -4.98,-1.98 -1.32,-1.321 -1.98,-2.98 -1.98,-4.98 z"
   id="path5"
   inkscape:connector-curvature="0" />
</g>
<g
   id="g7"
   transform="translate(-227.7,-108.96002)">
</g>
</svg>